<svg xmlns="http://www.w3.org/2000/svg" viewBox="0 0 260 111.45">
	<defs>
		<style>
			.cls-1{fill:#0094ff;}
		</style>
		<style>
			.cls-1{fill:#0094ff;}
		</style>
	</defs>
	<g>
		<rect class="cls-1" width="111.45" height="111.45" rx="24.83" />
		<path d="M98,55.37A42.18,42.18,0,1,1,55.79,13.2,42.17,42.17,0,0,1,98,55.37ZM38.71,27.62C28.35,38,30,56.42,42.36,68.8s30.82,14,41.18,3.65,8.74-28.81-3.64-41.19S49.08,17.25,38.71,27.62Zm-11,11C17.36,49,19,67.41,31.37,79.79s30.82,14,41.18,3.65,8.74-28.81-3.64-41.19S38.09,28.24,27.72,38.61Z" />
		<circle class="cls-1" cx="55.79" cy="55.37" r="14.39" />
	</g>
	<path d="m 162.87213,102.27638 h 52.66368 c 24.56021,-0.63764 44.13854,-20.730899 44.13854,-45.299356 0,-24.568458 -19.57833,-44.661712 -44.13854,-45.299353 h -52.66368 c -25.4786,-0.661485 -46.49068,19.812197 -46.49068,45.299353 0,25.487155 21.01208,45.960846 46.49068,45.299356 M 214.34669,86.327814 H 164.03075 C 148.2055,85.817452 135.64078,72.84097 135.64078,57.007504 c 0,-15.833466 12.56472,-28.809949 28.38997,-29.320311 h 50.31594 c 16.56355,-0.534172 30.28111,12.748153 30.28111,29.320311 0,16.572157 -13.71756,29.854482 -30.28111,29.32031" style="fill:#c74634;stroke-width:3.04943252" />
</svg>
