<svg xmlns:svg="http://www.w3.org/2000/svg" xmlns="http://www.w3.org/2000/svg" xmlns:sodipodi="http://sodipodi.sourceforge.net/DTD/sodipodi-0.dtd" xmlns:inkscape="http://www.inkscape.org/namespaces/inkscape" viewBox="0 0 845 111.45" version="1.1">
	<defs id="defs96">
		<style id="style94">
			.cls-1{fill:#0094ff;}
		</style>
		<style id="style224">
			.cls-1{fill:#0094ff;}
		</style>
	</defs>
	<g>
		<g>
			<rect class="cls-1" width="111.45" height="111.45" rx="24.83" />
			<path d="M160.38,28.58c19.17,0,31.51,12.34,31.51,30.2S179.55,89,160.38,89s-31.5-12.34-31.5-30.21S141.22,28.58,160.38,28.58Zm0,49.37C170.94,78,177,70.15,177,58.78s-6-19.16-16.57-19.16-16.56,7.8-16.56,19.16S149.83,78,160.38,78Z" />
			<path d="M216.32,44.17c7.15,0,10.8,3,12.75,5.2h.81l2.6-4.39h9.9V85.74c0,12.5-8.77,19.32-22.73,19.32-13.64,0-21.35-6.82-23.06-15.34V88.5h13.32c.65,3.73,3.41,6.82,9.25,6.82s8.93-3.09,8.93-8.12V82.49h-.81c-2.27,2-5.6,3.58-11,3.58-10.07,0-19.89-6.83-19.89-20.95S206.25,44.17,216.32,44.17Zm3.57,31.66c5.2,0,9-3.57,9-10.71s-3.81-10.72-9-10.72-9,3.57-9,10.72S214.7,75.83,219.89,75.83Z" />
			<path d="M264.46,45v4.39h.82c1.54-2.2,4.71-5.2,11.85-5.2,8.28,0,11.94,4.3,13.4,6.25h.81c2-2.35,5.76-6.25,13.88-6.25,9.42,0,16.08,5.85,16.08,14.94V88H307V60.25c0-3.5-2.44-5.53-6-5.53-4.22,0-7.79,2-7.79,8.45V88H278.92V60.25c0-3.5-2.44-5.53-6-5.53-4.22,0-7.8,2-7.8,8.45V88H250.82V45Z" />
			<path d="M328.6,58.54C329.82,49.93,338.1,44,350,44s20.71,5.92,20.71,17.7V88H357V83.47h-.81c-1.47,1.7-4.79,5.19-12.59,5.19-9.66,0-16.16-4.79-16.16-12.83s7-11.93,15.43-12.9l13.64-1.55V60.25c0-4.39-2.11-6.66-6.82-6.66s-7.14,2.27-7.47,6.17H328.6Zm18.68,20.38c5.52,0,9.25-3.57,9.25-8.93V69.5l-10.47,1.22c-2.44.24-4.31,1.62-4.31,4S343.62,78.92,347.28,78.92Z" />
			<path d="M133.89,8.2V20.65h6.85v2.79H130V8.2Z" />
			<path d="M146.15,8.2v2.92H142V8.2Zm-.24,4V23.44h-3.72V12.22Z" />
			<path d="M151.67,12.22v1.27h.21A3.69,3.69,0,0,1,155.23,12c2.54,0,4.23,1.46,4.23,4.13v7.3h-3.72v-7a1.57,1.57,0,0,0-1.7-1.76c-1.18,0-2.2.62-2.2,2.43v6.29h-3.72V12.22Z" />
			<path d="M174.26,23.12v.32h-4l-3.38-4.59-1.53,1.31v3.28h-3.72V8.2h3.72v7.71h.22l4-3.69h4.63v.32l-4.84,4.17Z" />
			<path d="M183.07,23.44V22.17h-.22a3.63,3.63,0,0,1-3.34,1.48c-2.54,0-4.23-1.46-4.23-4.12V12.22H179v7a1.56,1.56,0,0,0,1.69,1.75c1.19,0,2.21-.61,2.21-2.43V12.22h3.72V23.44Z" />
			<path d="M192.38,12.22v1.34h.21a2.41,2.41,0,0,1,2.48-1.38h1.23V15H195c-1.56,0-2.43.74-2.43,2.58v5.88h-3.72V12.22Z" />
			<path d="M201.7,8.2v2.92h-4.19V8.2Zm-.24,4V23.44h-3.72V12.22Z" />
			<path d="M209.38,12c3.39,0,6.22,1.93,6.22,5.86s-2.83,5.86-6.22,5.86-6.22-1.92-6.22-5.86S206,12,209.38,12Zm0,9.06c1.48,0,2.46-1.17,2.46-3.2s-1-3.19-2.46-3.19-2.45,1.16-2.45,3.19S207.9,21,209.38,21Z" />
			<path d="M225,23.44V22.17h-.21a3.65,3.65,0,0,1-3.34,1.48c-2.54,0-4.23-1.46-4.23-4.12V12.22h3.72v7a1.55,1.55,0,0,0,1.69,1.75c1.19,0,2.2-.61,2.2-2.43V12.22h3.73V23.44Z" />
			<path d="M235.61,12c3.39,0,5.14,1.51,5.48,3.45v.32h-3.43c-.1-.93-.91-1.31-2-1.31s-1.71.38-1.71.91.44.72,1.08.84l2.28.45c2.31.44,3.88,1.31,3.88,3.34s-1.68,3.68-5.32,3.68S230.45,22,230.13,20v-.32h3.43c.13,1.13,1.1,1.55,2.24,1.55s1.82-.44,1.82-1-.4-.78-1.23-.93l-2.28-.42c-2.2-.4-3.73-1.33-3.73-3.37S232.22,12,235.61,12Z" />
			<path d="M98,55.37A42.18,42.18,0,1,1,55.79,13.2,42.17,42.17,0,0,1,98,55.37ZM38.71,27.62C28.35,38,30,56.42,42.36,68.8s30.82,14,41.18,3.65,8.74-28.81-3.64-41.19S49.08,17.25,38.71,27.62Zm-11,11C17.36,49,19,67.41,31.37,79.79s30.82,14,41.18,3.65,8.74-28.81-3.64-41.19S38.09,28.24,27.72,38.61Z" />
			<circle class="cls-1" cx="55.79" cy="55.37" r="14.39" />
		</g>
	</g>
	<path inkscape:connector-curvature="0" d="m 590.79916,73.274261 h 29.85472 L 604.88413,47.80737 575.89108,93.804496 h -13.18376 l 35.26177,-55.184791 a 8.404073,8.404073 0 0 1 13.71295,-0.0979 l 35.36009,55.282726 H 633.85772 L 627.6477,83.519782 h -30.20764 l -6.58223,-10.245497 m 136.99228,10.24549 V 35.583282 h -11.20542 v 52.657733 a 5.4068152,5.4068152 0 0 0 1.66511,3.91793 5.6614849,5.6614849 0 0 0 4.07469,1.704376 h 50.93388 l 6.6407,-10.284744 H 727.79144 M 542.58845,74.959 a 19.687873,19.687873 0 0 0 0,-39.375732 H 493.61357 V 93.8045 h 11.18578 V 45.887557 h 37.10329 a 9.4227543,9.4227543 0 0 1 0,18.845501 h -31.55921 l 33.42023,29.071438 h 16.23998 l -22.44995,-18.8455 h 5.03476 m -117.77469,18.8455 h 33.83175 a 29.110625,29.110625 0 0 0 0,-58.201638 h -33.83175 a 29.110625,29.110625 0 1 0 0,58.201638 M 457.8816,83.558958 h -32.32353 a 18.845493,18.845493 0 0 1 0,-37.671401 h 32.32353 a 18.845493,18.845493 0 1 1 0,37.671401 m 212.53096,10.245538 h 34.53695 l 6.54317,-10.245538 h -40.31613 a 18.845493,18.845493 0 1 1 0,-37.671401 h 32.8128 l 6.62168,-10.284699 h -40.19847 a 29.110625,29.110625 0 1 0 0,58.201638 M 807.28742,83.558958 A 18.845493,18.845493 0 0 1 789.1469,69.846022 h 47.83839 l 6.58246,-10.265108 H 789.1469 a 18.825915,18.825915 0 0 1 18.14052,-13.712948 h 32.83265 l 6.56243,-10.284708 h -40.1594 a 29.110625,29.110625 0 0 0 0,58.201634 h 34.53659 l 6.56319,-10.245535 H 807.2677" style="fill:#c74634;stroke-width:1.9589901" />
</svg>
